{
	"asset":{
		"generator":"Khronos glTF Blender I/O v4.5.48",
		"version":"2.0"
	},
	"scene":0,
	"scenes":[
		{
			"name":"Scene",
			"nodes":[
				0
			]
		}
	],
	"nodes":[
		{
			"mesh":0,
			"name":"ojo izquierdo",
			"scale":[
				1.0371191501617432,
				0.9623804092407227,
				0.22547975182533264
			]
		}
	],
	"materials":[
		{
			"doubleSided":true,
			"name":"Material.045",
			"pbrMetallicRoughness":{
				"baseColorFactor":[
					0.800000011920929,
					0.800000011920929,
					0.800000011920929,
					1
				],
				"metallicFactor":0,
				"roughnessFactor":0.5
			}
		},
		{
			"doubleSided":true,
			"name":"Material",
			"pbrMetallicRoughness":{
				"baseColorFactor":[
					0.9734394550323486,
					0.2788943946361542,
					0.5457248091697693,
					1
				],
				"metallicFactor":0,
				"roughnessFactor":0.5
			}
		},
		{
			"doubleSided":true,
			"name":"Material.001",
			"pbrMetallicRoughness":{
				"baseColorFactor":[
					0.800000011920929,
					0.800000011920929,
					0.800000011920929,
					1
				],
				"metallicFactor":0,
				"roughnessFactor":0.5
			}
		},
		{
			"doubleSided":true,
			"name":"Material.002",
			"pbrMetallicRoughness":{
				"baseColorFactor":[
					0,
					0,
					0,
					1
				],
				"metallicFactor":0,
				"roughnessFactor":0.5
			}
		},
		{
			"doubleSided":true,
			"name":"Material.004",
			"pbrMetallicRoughness":{
				"baseColorFactor":[
					0.7990986704826355,
					0.006512029096484184,
					0.05612851679325104,
					1
				],
				"metallicFactor":0,
				"roughnessFactor":0.5
			}
		},
		{
			"doubleSided":true,
			"name":"Material.013",
			"pbrMetallicRoughness":{
				"baseColorFactor":[
					0.7990986704826355,
					0.006512029096484184,
					0.05612851679325104,
					1
				],
				"metallicFactor":0,
				"roughnessFactor":0.5
			}
		},
		{
			"doubleSided":true,
			"name":"Material.014",
			"pbrMetallicRoughness":{
				"baseColorFactor":[
					0.7990986704826355,
					0.006512029096484184,
					0.05612851679325104,
					1
				],
				"metallicFactor":0,
				"roughnessFactor":0.5
			}
		},
		{
			"doubleSided":true,
			"name":"Material.015",
			"pbrMetallicRoughness":{
				"baseColorFactor":[
					0.7990986704826355,
					0.006512029096484184,
					0.05612851679325104,
					1
				],
				"metallicFactor":0,
				"roughnessFactor":0.5
			}
		},
		{
			"doubleSided":true,
			"name":"Material.009",
			"pbrMetallicRoughness":{
				"baseColorFactor":[
					0.7990986704826355,
					0.006512029096484184,
					0.05612851679325104,
					1
				],
				"metallicFactor":0,
				"roughnessFactor":0.5
			}
		},
		{
			"doubleSided":true,
			"name":"Material.010",
			"pbrMetallicRoughness":{
				"baseColorFactor":[
					0.7990986704826355,
					0.006512029096484184,
					0.05612851679325104,
					1
				],
				"metallicFactor":0,
				"roughnessFactor":0.5
			}
		},
		{
			"doubleSided":true,
			"name":"Material.012",
			"pbrMetallicRoughness":{
				"baseColorFactor":[
					0.7990986704826355,
					0.006512029096484184,
					0.05612851679325104,
					1
				],
				"metallicFactor":0,
				"roughnessFactor":0.5
			}
		},
		{
			"doubleSided":true,
			"name":"Material.011",
			"pbrMetallicRoughness":{
				"baseColorFactor":[
					0.7990986704826355,
					0.006512029096484184,
					0.05612851679325104,
					1
				],
				"metallicFactor":0,
				"roughnessFactor":0.5
			}
		},
		{
			"doubleSided":true,
			"name":"Material.005",
			"pbrMetallicRoughness":{
				"baseColorFactor":[
					1,
					0.423095703125,
					0.63916015625,
					1
				],
				"metallicFactor":0,
				"roughnessFactor":0.5
			}
		},
		{
			"doubleSided":true,
			"name":"Material.007",
			"pbrMetallicRoughness":{
				"baseColorFactor":[
					1,
					0.363037109375,
					0.6875,
					1
				],
				"metallicFactor":0,
				"roughnessFactor":0.5
			}
		},
		{
			"doubleSided":true,
			"name":"Material.008",
			"pbrMetallicRoughness":{
				"baseColorFactor":[
					1,
					0.327880859375,
					0.63720703125,
					1
				],
				"metallicFactor":0,
				"roughnessFactor":0.5
			}
		},
		{
			"doubleSided":true,
			"name":"Material.006",
			"pbrMetallicRoughness":{
				"baseColorFactor":[
					1,
					0.327880859375,
					0.638671875,
					1
				],
				"metallicFactor":0,
				"roughnessFactor":0.5
			}
		},
		{
			"doubleSided":true,
			"name":"Material.016",
			"pbrMetallicRoughness":{
				"baseColorFactor":[
					0.7990986704826355,
					0.006512029096484184,
					0.05612851679325104,
					1
				],
				"metallicFactor":0,
				"roughnessFactor":0.5
			}
		},
		{
			"doubleSided":true,
			"name":"Material.017",
			"pbrMetallicRoughness":{
				"baseColorFactor":[
					0.7990986704826355,
					0.006512029096484184,
					0.05612851679325104,
					1
				],
				"metallicFactor":0,
				"roughnessFactor":0.5
			}
		},
		{
			"doubleSided":true,
			"name":"Material.019",
			"pbrMetallicRoughness":{
				"baseColorFactor":[
					0.7990986704826355,
					0.006512029096484184,
					0.05612851679325104,
					1
				],
				"metallicFactor":0,
				"roughnessFactor":0.5
			}
		},
		{
			"doubleSided":true,
			"name":"Material.018",
			"pbrMetallicRoughness":{
				"baseColorFactor":[
					0.7990986704826355,
					0.006512029096484184,
					0.05612851679325104,
					1
				],
				"metallicFactor":0,
				"roughnessFactor":0.5
			}
		}
	],
	"meshes":[
		{
			"name":"Cube.002",
			"primitives":[
				{
					"attributes":{
						"POSITION":0,
						"NORMAL":1,
						"TEXCOORD_0":2
					},
					"indices":3,
					"material":0
				},
				{
					"attributes":{
						"POSITION":4,
						"NORMAL":5,
						"TEXCOORD_0":6
					},
					"indices":7,
					"material":1
				},
				{
					"attributes":{
						"POSITION":8,
						"NORMAL":9,
						"TEXCOORD_0":10
					},
					"indices":11,
					"material":2
				},
				{
					"attributes":{
						"POSITION":12,
						"NORMAL":13,
						"TEXCOORD_0":14
					},
					"indices":15,
					"material":3
				},
				{
					"attributes":{
						"POSITION":16,
						"NORMAL":17,
						"TEXCOORD_0":18
					},
					"indices":19,
					"material":4
				},
				{
					"attributes":{
						"POSITION":20,
						"NORMAL":21,
						"TEXCOORD_0":22
					},
					"indices":23,
					"material":5
				},
				{
					"attributes":{
						"POSITION":24,
						"NORMAL":25,
						"TEXCOORD_0":26
					},
					"indices":27,
					"material":6
				},
				{
					"attributes":{
						"POSITION":28,
						"NORMAL":29,
						"TEXCOORD_0":30
					},
					"indices":23,
					"material":7
				},
				{
					"attributes":{
						"POSITION":31,
						"NORMAL":32,
						"TEXCOORD_0":33
					},
					"indices":3,
					"material":8
				},
				{
					"attributes":{
						"POSITION":34,
						"NORMAL":35,
						"TEXCOORD_0":36
					},
					"indices":3,
					"material":9
				},
				{
					"attributes":{
						"POSITION":37,
						"NORMAL":38,
						"TEXCOORD_0":39
					},
					"indices":3,
					"material":10
				},
				{
					"attributes":{
						"POSITION":40,
						"NORMAL":41,
						"TEXCOORD_0":42
					},
					"indices":3,
					"material":11
				},
				{
					"attributes":{
						"POSITION":43,
						"NORMAL":44,
						"TEXCOORD_0":45
					},
					"indices":3,
					"material":12
				},
				{
					"attributes":{
						"POSITION":46,
						"NORMAL":47,
						"TEXCOORD_0":48
					},
					"indices":3,
					"material":13
				},
				{
					"attributes":{
						"POSITION":49,
						"NORMAL":50,
						"TEXCOORD_0":51
					},
					"indices":3,
					"material":14
				},
				{
					"attributes":{
						"POSITION":52,
						"NORMAL":53,
						"TEXCOORD_0":54
					},
					"indices":3,
					"material":15
				},
				{
					"attributes":{
						"POSITION":55,
						"NORMAL":56,
						"TEXCOORD_0":57
					},
					"indices":58,
					"material":16
				},
				{
					"attributes":{
						"POSITION":59,
						"NORMAL":60,
						"TEXCOORD_0":61
					},
					"indices":62,
					"material":17
				},
				{
					"attributes":{
						"POSITION":63,
						"NORMAL":64,
						"TEXCOORD_0":65
					},
					"indices":66,
					"material":18
				},
				{
					"attributes":{
						"POSITION":67,
						"NORMAL":68,
						"TEXCOORD_0":69
					},
					"indices":70,
					"material":19
				}
			]
		}
	],
	"accessors":[
		{
			"bufferView":0,
			"componentType":5126,
			"count":24,
			"max":[
				2.733595609664917,
				1.1065303087234497,
				11.552519798278809
			],
			"min":[
				0.733595609664917,
				-0.8934696316719055,
				9.552519798278809
			],
			"type":"VEC3"
		},
		{
			"bufferView":1,
			"componentType":5126,
			"count":24,
			"type":"VEC3"
		},
		{
			"bufferView":2,
			"componentType":5126,
			"count":24,
			"type":"VEC2"
		},
		{
			"bufferView":3,
			"componentType":5123,
			"count":36,
			"type":"SCALAR"
		},
		{
			"bufferView":4,
			"componentType":5126,
			"count":192,
			"max":[
				3.350005865097046,
				1.5840444564819336,
				9.61767864227295
			],
			"min":[
				-7.2701568603515625,
				-1.3078067302703857,
				-9.455004692077637
			],
			"type":"VEC3"
		},
		{
			"bufferView":5,
			"componentType":5126,
			"count":192,
			"type":"VEC3"
		},
		{
			"bufferView":6,
			"componentType":5126,
			"count":192,
			"type":"VEC2"
		},
		{
			"bufferView":7,
			"componentType":5123,
			"count":288,
			"type":"SCALAR"
		},
		{
			"bufferView":8,
			"componentType":5126,
			"count":120,
			"max":[
				2.7336041927337646,
				1.1065305471420288,
				12.335183143615723
			],
			"min":[
				0.7336042523384094,
				-0.8934693932533264,
				-12.237442970275879
			],
			"type":"VEC3"
		},
		{
			"bufferView":9,
			"componentType":5126,
			"count":120,
			"type":"VEC3"
		},
		{
			"bufferView":10,
			"componentType":5126,
			"count":120,
			"type":"VEC2"
		},
		{
			"bufferView":11,
			"componentType":5123,
			"count":180,
			"type":"SCALAR"
		},
		{
			"bufferView":12,
			"componentType":5126,
			"count":48,
			"max":[
				2.177391529083252,
				0.4818603992462158,
				12.327984809875488
			],
			"min":[
				1.3361307382583618,
				-0.3478526473045349,
				-12.228096961975098
			],
			"type":"VEC3"
		},
		{
			"bufferView":13,
			"componentType":5126,
			"count":48,
			"type":"VEC3"
		},
		{
			"bufferView":14,
			"componentType":5126,
			"count":48,
			"type":"VEC2"
		},
		{
			"bufferView":15,
			"componentType":5123,
			"count":72,
			"type":"SCALAR"
		},
		{
			"bufferView":16,
			"componentType":5126,
			"count":4,
			"max":[
				2.7897157669067383,
				1.1759741306304932,
				6.951141834259033
			],
			"min":[
				2.765486717224121,
				-1.0077133178710938,
				-6.3235883712768555
			],
			"type":"VEC3"
		},
		{
			"bufferView":17,
			"componentType":5126,
			"count":4,
			"type":"VEC3"
		},
		{
			"bufferView":18,
			"componentType":5126,
			"count":4,
			"type":"VEC2"
		},
		{
			"bufferView":19,
			"componentType":5123,
			"count":6,
			"type":"SCALAR"
		},
		{
			"bufferView":20,
			"componentType":5126,
			"count":48,
			"max":[
				1.2449843883514404,
				1.1278647184371948,
				2.0001916885375977
			],
			"min":[
				-8.031126976013184,
				-0.8785486817359924,
				-1.8346662521362305
			],
			"type":"VEC3"
		},
		{
			"bufferView":21,
			"componentType":5126,
			"count":48,
			"type":"VEC3"
		},
		{
			"bufferView":22,
			"componentType":5126,
			"count":48,
			"type":"VEC2"
		},
		{
			"bufferView":23,
			"componentType":5123,
			"count":72,
			"type":"SCALAR"
		},
		{
			"bufferView":24,
			"componentType":5126,
			"count":24,
			"max":[
				-7.269830703735352,
				0.6774478554725647,
				2.0001916885375977
			],
			"min":[
				-8.03027629852295,
				-0.395711749792099,
				-1.8346662521362305
			],
			"type":"VEC3"
		},
		{
			"bufferView":25,
			"componentType":5126,
			"count":24,
			"type":"VEC3"
		},
		{
			"bufferView":26,
			"componentType":5126,
			"count":24,
			"type":"VEC2"
		},
		{
			"bufferView":27,
			"componentType":5123,
			"count":36,
			"type":"SCALAR"
		},
		{
			"bufferView":28,
			"componentType":5126,
			"count":48,
			"max":[
				1.2453334331512451,
				0.6854519248008728,
				2.0001916885375977
			],
			"min":[
				-7.2894392013549805,
				-0.43403032422065735,
				-1.8346662521362305
			],
			"type":"VEC3"
		},
		{
			"bufferView":29,
			"componentType":5126,
			"count":48,
			"type":"VEC3"
		},
		{
			"bufferView":30,
			"componentType":5126,
			"count":48,
			"type":"VEC2"
		},
		{
			"bufferView":31,
			"componentType":5126,
			"count":24,
			"max":[
				-1.1024060249328613,
				-1.9494110345840454,
				-1.4119596481323242
			],
			"min":[
				-1.7084102630615234,
				-2.701528549194336,
				-4.352339744567871
			],
			"type":"VEC3"
		},
		{
			"bufferView":32,
			"componentType":5126,
			"count":24,
			"type":"VEC3"
		},
		{
			"bufferView":33,
			"componentType":5126,
			"count":24,
			"type":"VEC2"
		},
		{
			"bufferView":34,
			"componentType":5126,
			"count":24,
			"max":[
				-1.1170539855957031,
				-1.9494110345840454,
				4.832871437072754
			],
			"min":[
				-1.6937637329101562,
				-2.701528549194336,
				1.6932649612426758
			],
			"type":"VEC3"
		},
		{
			"bufferView":35,
			"componentType":5126,
			"count":24,
			"type":"VEC3"
		},
		{
			"bufferView":36,
			"componentType":5126,
			"count":24,
			"type":"VEC2"
		},
		{
			"bufferView":37,
			"componentType":5126,
			"count":24,
			"max":[
				-3.603910207748413,
				-1.9494110345840454,
				-1.3280458450317383
			],
			"min":[
				-4.214104652404785,
				-2.701528549194336,
				-4.43624210357666
			],
			"type":"VEC3"
		},
		{
			"bufferView":38,
			"componentType":5126,
			"count":24,
			"type":"VEC3"
		},
		{
			"bufferView":39,
			"componentType":5126,
			"count":24,
			"type":"VEC2"
		},
		{
			"bufferView":40,
			"componentType":5126,
			"count":24,
			"max":[
				-3.586867094039917,
				-1.9494110345840454,
				4.707479953765869
			],
			"min":[
				-4.231148719787598,
				-2.701528549194336,
				1.8186101913452148
			],
			"type":"VEC3"
		},
		{
			"bufferView":41,
			"componentType":5126,
			"count":24,
			"type":"VEC3"
		},
		{
			"bufferView":42,
			"componentType":5126,
			"count":24,
			"type":"VEC2"
		},
		{
			"bufferView":43,
			"componentType":5126,
			"count":24,
			"max":[
				-1.1248421669006348,
				-0.6954203248023987,
				-1.6235170364379883
			],
			"min":[
				-1.6540756225585938,
				-2.6549441814422607,
				-4.140717506408691
			],
			"type":"VEC3"
		},
		{
			"bufferView":44,
			"componentType":5126,
			"count":24,
			"type":"VEC3"
		},
		{
			"bufferView":45,
			"componentType":5126,
			"count":24,
			"type":"VEC2"
		},
		{
			"bufferView":46,
			"componentType":5126,
			"count":24,
			"max":[
				-1.1248431205749512,
				-0.6954203248023987,
				4.521610736846924
			],
			"min":[
				-1.6540765762329102,
				-2.6549441814422607,
				2.004410743713379
			],
			"type":"VEC3"
		},
		{
			"bufferView":47,
			"componentType":5126,
			"count":24,
			"type":"VEC3"
		},
		{
			"bufferView":48,
			"componentType":5126,
			"count":24,
			"type":"VEC2"
		},
		{
			"bufferView":49,
			"componentType":5126,
			"count":24,
			"max":[
				-3.6603543758392334,
				-0.6954203248023987,
				-1.6235151290893555
			],
			"min":[
				-4.189587593078613,
				-2.6549441814422607,
				-4.140715599060059
			],
			"type":"VEC3"
		},
		{
			"bufferView":50,
			"componentType":5126,
			"count":24,
			"type":"VEC3"
		},
		{
			"bufferView":51,
			"componentType":5126,
			"count":24,
			"type":"VEC2"
		},
		{
			"bufferView":52,
			"componentType":5126,
			"count":24,
			"max":[
				-3.66035532951355,
				-0.6954203248023987,
				4.521610736846924
			],
			"min":[
				-4.18958854675293,
				-2.6549441814422607,
				2.004410743713379
			],
			"type":"VEC3"
		},
		{
			"bufferView":53,
			"componentType":5126,
			"count":24,
			"type":"VEC3"
		},
		{
			"bufferView":54,
			"componentType":5126,
			"count":24,
			"type":"VEC2"
		},
		{
			"bufferView":55,
			"componentType":5126,
			"count":48,
			"max":[
				0.47304725646972656,
				1.757684588432312,
				-9.36788272857666
			],
			"min":[
				-0.5976605415344238,
				0.7315993309020996,
				-14.253018379211426
			],
			"type":"VEC3"
		},
		{
			"bufferView":56,
			"componentType":5126,
			"count":48,
			"type":"VEC3"
		},
		{
			"bufferView":57,
			"componentType":5126,
			"count":48,
			"type":"VEC2"
		},
		{
			"bufferView":58,
			"componentType":5123,
			"count":72,
			"type":"SCALAR"
		},
		{
			"bufferView":59,
			"componentType":5126,
			"count":48,
			"max":[
				0.47104787826538086,
				1.7560195922851562,
				14.516199111938477
			],
			"min":[
				-0.5984816551208496,
				0.7297837734222412,
				9.612548828125
			],
			"type":"VEC3"
		},
		{
			"bufferView":60,
			"componentType":5126,
			"count":48,
			"type":"VEC3"
		},
		{
			"bufferView":61,
			"componentType":5126,
			"count":48,
			"type":"VEC2"
		},
		{
			"bufferView":62,
			"componentType":5123,
			"count":72,
			"type":"SCALAR"
		},
		{
			"bufferView":63,
			"componentType":5126,
			"count":144,
			"max":[
				0.4758732318878174,
				2.6226983070373535,
				8.83007526397705
			],
			"min":[
				-1.094236135482788,
				-0.05579354614019394,
				-16.369586944580078
			],
			"type":"VEC3"
		},
		{
			"bufferView":64,
			"componentType":5126,
			"count":144,
			"type":"VEC3"
		},
		{
			"bufferView":65,
			"componentType":5126,
			"count":144,
			"type":"VEC2"
		},
		{
			"bufferView":66,
			"componentType":5123,
			"count":216,
			"type":"SCALAR"
		},
		{
			"bufferView":67,
			"componentType":5126,
			"count":48,
			"max":[
				0.4758942127227783,
				0.40998682379722595,
				16.60331916809082
			],
			"min":[
				-0.4847686290740967,
				-0.055793486535549164,
				9.540367126464844
			],
			"type":"VEC3"
		},
		{
			"bufferView":68,
			"componentType":5126,
			"count":48,
			"type":"VEC3"
		},
		{
			"bufferView":69,
			"componentType":5126,
			"count":48,
			"type":"VEC2"
		},
		{
			"bufferView":70,
			"componentType":5123,
			"count":72,
			"type":"SCALAR"
		}
	],
	"bufferViews":[
		{
			"buffer":0,
			"byteLength":288,
			"byteOffset":0,
			"target":34962
		},
		{
			"buffer":0,
			"byteLength":288,
			"byteOffset":288,
			"target":34962
		},
		{
			"buffer":0,
			"byteLength":192,
			"byteOffset":576,
			"target":34962
		},
		{
			"buffer":0,
			"byteLength":72,
			"byteOffset":768,
			"target":34963
		},
		{
			"buffer":0,
			"byteLength":2304,
			"byteOffset":840,
			"target":34962
		},
		{
			"buffer":0,
			"byteLength":2304,
			"byteOffset":3144,
			"target":34962
		},
		{
			"buffer":0,
			"byteLength":1536,
			"byteOffset":5448,
			"target":34962
		},
		{
			"buffer":0,
			"byteLength":576,
			"byteOffset":6984,
			"target":34963
		},
		{
			"buffer":0,
			"byteLength":1440,
			"byteOffset":7560,
			"target":34962
		},
		{
			"buffer":0,
			"byteLength":1440,
			"byteOffset":9000,
			"target":34962
		},
		{
			"buffer":0,
			"byteLength":960,
			"byteOffset":10440,
			"target":34962
		},
		{
			"buffer":0,
			"byteLength":360,
			"byteOffset":11400,
			"target":34963
		},
		{
			"buffer":0,
			"byteLength":576,
			"byteOffset":11760,
			"target":34962
		},
		{
			"buffer":0,
			"byteLength":576,
			"byteOffset":12336,
			"target":34962
		},
		{
			"buffer":0,
			"byteLength":384,
			"byteOffset":12912,
			"target":34962
		},
		{
			"buffer":0,
			"byteLength":144,
			"byteOffset":13296,
			"target":34963
		},
		{
			"buffer":0,
			"byteLength":48,
			"byteOffset":13440,
			"target":34962
		},
		{
			"buffer":0,
			"byteLength":48,
			"byteOffset":13488,
			"target":34962
		},
		{
			"buffer":0,
			"byteLength":32,
			"byteOffset":13536,
			"target":34962
		},
		{
			"buffer":0,
			"byteLength":12,
			"byteOffset":13568,
			"target":34963
		},
		{
			"buffer":0,
			"byteLength":576,
			"byteOffset":13580,
			"target":34962
		},
		{
			"buffer":0,
			"byteLength":576,
			"byteOffset":14156,
			"target":34962
		},
		{
			"buffer":0,
			"byteLength":384,
			"byteOffset":14732,
			"target":34962
		},
		{
			"buffer":0,
			"byteLength":144,
			"byteOffset":15116,
			"target":34963
		},
		{
			"buffer":0,
			"byteLength":288,
			"byteOffset":15260,
			"target":34962
		},
		{
			"buffer":0,
			"byteLength":288,
			"byteOffset":15548,
			"target":34962
		},
		{
			"buffer":0,
			"byteLength":192,
			"byteOffset":15836,
			"target":34962
		},
		{
			"buffer":0,
			"byteLength":72,
			"byteOffset":16028,
			"target":34963
		},
		{
			"buffer":0,
			"byteLength":576,
			"byteOffset":16100,
			"target":34962
		},
		{
			"buffer":0,
			"byteLength":576,
			"byteOffset":16676,
			"target":34962
		},
		{
			"buffer":0,
			"byteLength":384,
			"byteOffset":17252,
			"target":34962
		},
		{
			"buffer":0,
			"byteLength":288,
			"byteOffset":17636,
			"target":34962
		},
		{
			"buffer":0,
			"byteLength":288,
			"byteOffset":17924,
			"target":34962
		},
		{
			"buffer":0,
			"byteLength":192,
			"byteOffset":18212,
			"target":34962
		},
		{
			"buffer":0,
			"byteLength":288,
			"byteOffset":18404,
			"target":34962
		},
		{
			"buffer":0,
			"byteLength":288,
			"byteOffset":18692,
			"target":34962
		},
		{
			"buffer":0,
			"byteLength":192,
			"byteOffset":18980,
			"target":34962
		},
		{
			"buffer":0,
			"byteLength":288,
			"byteOffset":19172,
			"target":34962
		},
		{
			"buffer":0,
			"byteLength":288,
			"byteOffset":19460,
			"target":34962
		},
		{
			"buffer":0,
			"byteLength":192,
			"byteOffset":19748,
			"target":34962
		},
		{
			"buffer":0,
			"byteLength":288,
			"byteOffset":19940,
			"target":34962
		},
		{
			"buffer":0,
			"byteLength":288,
			"byteOffset":20228,
			"target":34962
		},
		{
			"buffer":0,
			"byteLength":192,
			"byteOffset":20516,
			"target":34962
		},
		{
			"buffer":0,
			"byteLength":288,
			"byteOffset":20708,
			"target":34962
		},
		{
			"buffer":0,
			"byteLength":288,
			"byteOffset":20996,
			"target":34962
		},
		{
			"buffer":0,
			"byteLength":192,
			"byteOffset":21284,
			"target":34962
		},
		{
			"buffer":0,
			"byteLength":288,
			"byteOffset":21476,
			"target":34962
		},
		{
			"buffer":0,
			"byteLength":288,
			"byteOffset":21764,
			"target":34962
		},
		{
			"buffer":0,
			"byteLength":192,
			"byteOffset":22052,
			"target":34962
		},
		{
			"buffer":0,
			"byteLength":288,
			"byteOffset":22244,
			"target":34962
		},
		{
			"buffer":0,
			"byteLength":288,
			"byteOffset":22532,
			"target":34962
		},
		{
			"buffer":0,
			"byteLength":192,
			"byteOffset":22820,
			"target":34962
		},
		{
			"buffer":0,
			"byteLength":288,
			"byteOffset":23012,
			"target":34962
		},
		{
			"buffer":0,
			"byteLength":288,
			"byteOffset":23300,
			"target":34962
		},
		{
			"buffer":0,
			"byteLength":192,
			"byteOffset":23588,
			"target":34962
		},
		{
			"buffer":0,
			"byteLength":576,
			"byteOffset":23780,
			"target":34962
		},
		{
			"buffer":0,
			"byteLength":576,
			"byteOffset":24356,
			"target":34962
		},
		{
			"buffer":0,
			"byteLength":384,
			"byteOffset":24932,
			"target":34962
		},
		{
			"buffer":0,
			"byteLength":144,
			"byteOffset":25316,
			"target":34963
		},
		{
			"buffer":0,
			"byteLength":576,
			"byteOffset":25460,
			"target":34962
		},
		{
			"buffer":0,
			"byteLength":576,
			"byteOffset":26036,
			"target":34962
		},
		{
			"buffer":0,
			"byteLength":384,
			"byteOffset":26612,
			"target":34962
		},
		{
			"buffer":0,
			"byteLength":144,
			"byteOffset":26996,
			"target":34963
		},
		{
			"buffer":0,
			"byteLength":1728,
			"byteOffset":27140,
			"target":34962
		},
		{
			"buffer":0,
			"byteLength":1728,
			"byteOffset":28868,
			"target":34962
		},
		{
			"buffer":0,
			"byteLength":1152,
			"byteOffset":30596,
			"target":34962
		},
		{
			"buffer":0,
			"byteLength":432,
			"byteOffset":31748,
			"target":34963
		},
		{
			"buffer":0,
			"byteLength":576,
			"byteOffset":32180,
			"target":34962
		},
		{
			"buffer":0,
			"byteLength":576,
			"byteOffset":32756,
			"target":34962
		},
		{
			"buffer":0,
			"byteLength":384,
			"byteOffset":33332,
			"target":34962
		},
		{
			"buffer":0,
			"byteLength":144,
			"byteOffset":33716,
			"target":34963
		}
	],
	"buffers":[
		{
			"byteLength":33860,
			"uri":"axolote.bin"
		}
	]
}
