{
	"asset":{
		"generator":"Khronos glTF Blender I/O v4.5.48",
		"version":"2.0"
	},
	"scene":0,
	"scenes":[
		{
			"name":"Scene",
			"nodes":[
				0
			]
		}
	],
	"nodes":[
		{
			"mesh":0,
			"name":"Cube.015"
		}
	],
	"materials":[
		{
			"doubleSided":true,
			"name":"Material.017",
			"pbrMetallicRoughness":{
				"baseColorFactor":[
					0.02315322309732437,
					0.010960103012621403,
					0.008023194968700409,
					1
				],
				"metallicFactor":0,
				"roughnessFactor":0.5
			}
		},
		{
			"doubleSided":true,
			"name":"Material.002",
			"pbrMetallicRoughness":{
				"baseColorFactor":[
					0.552008330821991,
					0.17144134640693665,
					0.045186277478933334,
					1
				],
				"metallicFactor":0,
				"roughnessFactor":0.5
			}
		},
		{
			"doubleSided":true,
			"name":"Material.003",
			"pbrMetallicRoughness":{
				"baseColorFactor":[
					0.552008330821991,
					0.17144134640693665,
					0.045186277478933334,
					1
				],
				"metallicFactor":0,
				"roughnessFactor":0.5
			}
		},
		{
			"doubleSided":true,
			"name":"Material.001",
			"pbrMetallicRoughness":{
				"baseColorFactor":[
					0.552008330821991,
					0.17144134640693665,
					0.045186277478933334,
					1
				],
				"metallicFactor":0,
				"roughnessFactor":0.5
			}
		},
		{
			"doubleSided":true,
			"name":"Material.004",
			"pbrMetallicRoughness":{
				"baseColorFactor":[
					0.552008330821991,
					0.17144134640693665,
					0.045186277478933334,
					1
				],
				"metallicFactor":0,
				"roughnessFactor":0.5
			}
		},
		{
			"doubleSided":true,
			"name":"Material.005",
			"pbrMetallicRoughness":{
				"baseColorFactor":[
					0.552008330821991,
					0.17144134640693665,
					0.045186277478933334,
					1
				],
				"metallicFactor":0,
				"roughnessFactor":0.5
			}
		},
		{
			"doubleSided":true,
			"name":"Material.006",
			"pbrMetallicRoughness":{
				"baseColorFactor":[
					0.552008330821991,
					0.17144134640693665,
					0.045186277478933334,
					1
				],
				"metallicFactor":0,
				"roughnessFactor":0.5
			}
		},
		{
			"doubleSided":true,
			"name":"Material.007",
			"pbrMetallicRoughness":{
				"baseColorFactor":[
					0.552008330821991,
					0.17144134640693665,
					0.045186277478933334,
					1
				],
				"metallicFactor":0,
				"roughnessFactor":0.5
			}
		},
		{
			"doubleSided":true,
			"name":"Material.008",
			"pbrMetallicRoughness":{
				"baseColorFactor":[
					0.552008330821991,
					0.17144134640693665,
					0.045186277478933334,
					1
				],
				"metallicFactor":0,
				"roughnessFactor":0.5
			}
		},
		{
			"doubleSided":true,
			"name":"Material.009",
			"pbrMetallicRoughness":{
				"baseColorFactor":[
					0.7453995943069458,
					0.46207737922668457,
					0.31854698061943054,
					1
				],
				"metallicFactor":0,
				"roughnessFactor":0.5
			}
		},
		{
			"doubleSided":true,
			"name":"Material.010",
			"pbrMetallicRoughness":{
				"baseColorFactor":[
					0.7453995943069458,
					0.46207737922668457,
					0.31854698061943054,
					1
				],
				"metallicFactor":0,
				"roughnessFactor":0.5
			}
		},
		{
			"doubleSided":true,
			"name":"Material.011",
			"pbrMetallicRoughness":{
				"baseColorFactor":[
					0.7453995943069458,
					0.46207737922668457,
					0.31854698061943054,
					1
				],
				"metallicFactor":0,
				"roughnessFactor":0.5
			}
		},
		{
			"doubleSided":true,
			"name":"Material.013",
			"pbrMetallicRoughness":{
				"baseColorFactor":[
					0.7453995943069458,
					0.46207737922668457,
					0.31854698061943054,
					1
				],
				"metallicFactor":0,
				"roughnessFactor":0.5
			}
		},
		{
			"doubleSided":true,
			"name":"Material.012",
			"pbrMetallicRoughness":{
				"baseColorFactor":[
					0.7453995943069458,
					0.46207737922668457,
					0.31854698061943054,
					1
				],
				"metallicFactor":0,
				"roughnessFactor":0.5
			}
		},
		{
			"doubleSided":true,
			"name":"Material.014",
			"pbrMetallicRoughness":{
				"baseColorFactor":[
					0.7453995943069458,
					0.46207737922668457,
					0.31854698061943054,
					1
				],
				"metallicFactor":0,
				"roughnessFactor":0.5
			}
		},
		{
			"doubleSided":true,
			"name":"Material.018",
			"pbrMetallicRoughness":{
				"baseColorFactor":[
					0.02315322309732437,
					0.010960103012621403,
					0.008023194968700409,
					1
				],
				"metallicFactor":0,
				"roughnessFactor":0.5
			}
		},
		{
			"doubleSided":true,
			"name":"Material.015",
			"pbrMetallicRoughness":{
				"baseColorFactor":[
					0.15895991027355194,
					0.0630100816488266,
					0.04231143742799759,
					1
				],
				"metallicFactor":0,
				"roughnessFactor":0.5
			}
		},
		{
			"doubleSided":true,
			"name":"Material.016",
			"pbrMetallicRoughness":{
				"metallicFactor":0,
				"roughnessFactor":0.5
			}
		}
	],
	"meshes":[
		{
			"name":"Cube.016",
			"primitives":[
				{
					"attributes":{
						"POSITION":0,
						"NORMAL":1,
						"TEXCOORD_0":2
					},
					"indices":3,
					"material":0
				},
				{
					"attributes":{
						"POSITION":4,
						"NORMAL":5,
						"TEXCOORD_0":6
					},
					"indices":3,
					"material":1
				},
				{
					"attributes":{
						"POSITION":7,
						"NORMAL":8,
						"TEXCOORD_0":9
					},
					"indices":3,
					"material":2
				},
				{
					"attributes":{
						"POSITION":10,
						"NORMAL":11,
						"TEXCOORD_0":12
					},
					"indices":3,
					"material":3
				},
				{
					"attributes":{
						"POSITION":13,
						"NORMAL":14,
						"TEXCOORD_0":15
					},
					"indices":3,
					"material":4
				},
				{
					"attributes":{
						"POSITION":16,
						"NORMAL":17,
						"TEXCOORD_0":18
					},
					"indices":19,
					"material":5
				},
				{
					"attributes":{
						"POSITION":20,
						"NORMAL":21,
						"TEXCOORD_0":22
					},
					"indices":23,
					"material":6
				},
				{
					"attributes":{
						"POSITION":24,
						"NORMAL":25,
						"TEXCOORD_0":26
					},
					"indices":3,
					"material":7
				},
				{
					"attributes":{
						"POSITION":27,
						"NORMAL":28,
						"TEXCOORD_0":29
					},
					"indices":3,
					"material":8
				},
				{
					"attributes":{
						"POSITION":30,
						"NORMAL":31,
						"TEXCOORD_0":32
					},
					"indices":3,
					"material":9
				},
				{
					"attributes":{
						"POSITION":33,
						"NORMAL":34,
						"TEXCOORD_0":35
					},
					"indices":3,
					"material":10
				},
				{
					"attributes":{
						"POSITION":36,
						"NORMAL":37,
						"TEXCOORD_0":38
					},
					"indices":3,
					"material":11
				},
				{
					"attributes":{
						"POSITION":39,
						"NORMAL":40,
						"TEXCOORD_0":41
					},
					"indices":3,
					"material":12
				},
				{
					"attributes":{
						"POSITION":42,
						"NORMAL":43,
						"TEXCOORD_0":44
					},
					"indices":3,
					"material":13
				},
				{
					"attributes":{
						"POSITION":45,
						"NORMAL":46,
						"TEXCOORD_0":47
					},
					"indices":3,
					"material":14
				},
				{
					"attributes":{
						"POSITION":48,
						"NORMAL":49,
						"TEXCOORD_0":50
					},
					"indices":3,
					"material":15
				},
				{
					"attributes":{
						"POSITION":51,
						"NORMAL":52,
						"TEXCOORD_0":53
					},
					"indices":3,
					"material":16
				},
				{
					"attributes":{
						"POSITION":54,
						"NORMAL":55,
						"TEXCOORD_0":56
					},
					"indices":57,
					"material":17
				}
			]
		}
	],
	"accessors":[
		{
			"bufferView":0,
			"componentType":5126,
			"count":24,
			"max":[
				2.1036312580108643,
				3.5642385482788086,
				2.8874218463897705
			],
			"min":[
				1.7435431480407715,
				0.20754528045654297,
				1.051729440689087
			],
			"type":"VEC3"
		},
		{
			"bufferView":1,
			"componentType":5126,
			"count":24,
			"type":"VEC3"
		},
		{
			"bufferView":2,
			"componentType":5126,
			"count":24,
			"type":"VEC2"
		},
		{
			"bufferView":3,
			"componentType":5123,
			"count":36,
			"type":"SCALAR"
		},
		{
			"bufferView":4,
			"componentType":5126,
			"count":24,
			"max":[
				0.7684867978096008,
				3.465512275695801,
				2.1632301807403564
			],
			"min":[
				-1.751983404159546,
				-4.677998065948486,
				-2.1717641353607178
			],
			"type":"VEC3"
		},
		{
			"bufferView":5,
			"componentType":5126,
			"count":24,
			"type":"VEC3"
		},
		{
			"bufferView":6,
			"componentType":5126,
			"count":24,
			"type":"VEC2"
		},
		{
			"bufferView":7,
			"componentType":5126,
			"count":24,
			"max":[
				1.8144516944885254,
				4.425694465637207,
				3.9840731620788574
			],
			"min":[
				-2.7979483604431152,
				-2.653909683227539,
				-3.9926068782806396
			],
			"type":"VEC3"
		},
		{
			"bufferView":8,
			"componentType":5126,
			"count":24,
			"type":"VEC3"
		},
		{
			"bufferView":9,
			"componentType":5126,
			"count":24,
			"type":"VEC2"
		},
		{
			"bufferView":10,
			"componentType":5126,
			"count":24,
			"max":[
				0.03782910108566284,
				3.315535545349121,
				6.458321571350098
			],
			"min":[
				-1.0213255882263184,
				-1.543750286102295,
				2.7673213481903076
			],
			"type":"VEC3"
		},
		{
			"bufferView":11,
			"componentType":5126,
			"count":24,
			"type":"VEC3"
		},
		{
			"bufferView":12,
			"componentType":5126,
			"count":24,
			"type":"VEC2"
		},
		{
			"bufferView":13,
			"componentType":5126,
			"count":24,
			"max":[
				0.03782910108566284,
				3.315535545349121,
				-2.767726182937622
			],
			"min":[
				-1.0213255882263184,
				-1.543750286102295,
				-6.458725929260254
			],
			"type":"VEC3"
		},
		{
			"bufferView":14,
			"componentType":5126,
			"count":24,
			"type":"VEC3"
		},
		{
			"bufferView":15,
			"componentType":5126,
			"count":24,
			"type":"VEC2"
		},
		{
			"bufferView":16,
			"componentType":5126,
			"count":24,
			"max":[
				0.09697264432907104,
				-4.464208602905273,
				-0.19529962539672852
			],
			"min":[
				-1.0804691314697266,
				-6.30662727355957,
				-1.413233995437622
			],
			"type":"VEC3"
		},
		{
			"bufferView":17,
			"componentType":5126,
			"count":24,
			"type":"VEC3"
		},
		{
			"bufferView":18,
			"componentType":5126,
			"count":24,
			"type":"VEC2"
		},
		{
			"bufferView":19,
			"componentType":5123,
			"count":36,
			"type":"SCALAR"
		},
		{
			"bufferView":20,
			"componentType":5126,
			"count":72,
			"max":[
				1.311290979385376,
				-4.464208602905273,
				1.454700231552124
			],
			"min":[
				-1.0804691314697266,
				-6.30662727355957,
				-1.413233995437622
			],
			"type":"VEC3"
		},
		{
			"bufferView":21,
			"componentType":5126,
			"count":72,
			"type":"VEC3"
		},
		{
			"bufferView":22,
			"componentType":5126,
			"count":72,
			"type":"VEC2"
		},
		{
			"bufferView":23,
			"componentType":5123,
			"count":108,
			"type":"SCALAR"
		},
		{
			"bufferView":24,
			"componentType":5126,
			"count":24,
			"max":[
				0.09697264432907104,
				-2.3302206993103027,
				3.1047003269195557
			],
			"min":[
				-1.0804691314697266,
				-4.192745208740234,
				1.886765718460083
			],
			"type":"VEC3"
		},
		{
			"bufferView":25,
			"componentType":5126,
			"count":24,
			"type":"VEC3"
		},
		{
			"bufferView":26,
			"componentType":5126,
			"count":24,
			"type":"VEC2"
		},
		{
			"bufferView":27,
			"componentType":5126,
			"count":24,
			"max":[
				0.09697264432907104,
				-2.3302206993103027,
				-1.8952996730804443
			],
			"min":[
				-1.0804691314697266,
				-4.192745208740234,
				-3.113233804702759
			],
			"type":"VEC3"
		},
		{
			"bufferView":28,
			"componentType":5126,
			"count":24,
			"type":"VEC3"
		},
		{
			"bufferView":29,
			"componentType":5126,
			"count":24,
			"type":"VEC2"
		},
		{
			"bufferView":30,
			"componentType":5126,
			"count":24,
			"max":[
				0.13652092218399048,
				-3.4703149795532227,
				3.14560866355896
			],
			"min":[
				-1.1200175285339355,
				-4.452651023864746,
				1.8458575010299683
			],
			"type":"VEC3"
		},
		{
			"bufferView":31,
			"componentType":5126,
			"count":24,
			"type":"VEC3"
		},
		{
			"bufferView":32,
			"componentType":5126,
			"count":24,
			"type":"VEC2"
		},
		{
			"bufferView":33,
			"componentType":5126,
			"count":24,
			"max":[
				0.13652092218399048,
				-3.4703149795532227,
				-1.85439133644104
			],
			"min":[
				-1.1200175285339355,
				-4.452651023864746,
				-3.154142141342163
			],
			"type":"VEC3"
		},
		{
			"bufferView":34,
			"componentType":5126,
			"count":24,
			"type":"VEC3"
		},
		{
			"bufferView":35,
			"componentType":5126,
			"count":24,
			"type":"VEC2"
		},
		{
			"bufferView":36,
			"componentType":5126,
			"count":24,
			"max":[
				0.8621813654899597,
				-2.0451531410217285,
				1.5732301473617554
			],
			"min":[
				-0.18567758798599243,
				-4.047332286834717,
				-1.581763744354248
			],
			"type":"VEC3"
		},
		{
			"bufferView":37,
			"componentType":5126,
			"count":24,
			"type":"VEC3"
		},
		{
			"bufferView":38,
			"componentType":5126,
			"count":24,
			"type":"VEC2"
		},
		{
			"bufferView":39,
			"componentType":5126,
			"count":24,
			"max":[
				0.12429720163345337,
				2.5574960708618164,
				5.862936973571777
			],
			"min":[
				-0.3877938389778137,
				-0.9057111740112305,
				3.362705945968628
			],
			"type":"VEC3"
		},
		{
			"bufferView":40,
			"componentType":5126,
			"count":24,
			"type":"VEC3"
		},
		{
			"bufferView":41,
			"componentType":5126,
			"count":24,
			"type":"VEC2"
		},
		{
			"bufferView":42,
			"componentType":5126,
			"count":24,
			"max":[
				0.12429720163345337,
				2.5574960708618164,
				-3.357062578201294
			],
			"min":[
				-0.3877938389778137,
				-0.9057111740112305,
				-5.857294082641602
			],
			"type":"VEC3"
		},
		{
			"bufferView":43,
			"componentType":5126,
			"count":24,
			"type":"VEC3"
		},
		{
			"bufferView":44,
			"componentType":5126,
			"count":24,
			"type":"VEC2"
		},
		{
			"bufferView":45,
			"componentType":5126,
			"count":24,
			"max":[
				2.037715435028076,
				3.914238929748535,
				3.343127489089966
			],
			"min":[
				1.2387878894805908,
				-2.1424546241760254,
				-3.351660966873169
			],
			"type":"VEC3"
		},
		{
			"bufferView":46,
			"componentType":5126,
			"count":24,
			"type":"VEC3"
		},
		{
			"bufferView":47,
			"componentType":5126,
			"count":24,
			"type":"VEC2"
		},
		{
			"bufferView":48,
			"componentType":5126,
			"count":24,
			"max":[
				2.1036322116851807,
				3.5642385482788086,
				-0.9969754219055176
			],
			"min":[
				1.7435438632965088,
				0.20754528045654297,
				-2.832667589187622
			],
			"type":"VEC3"
		},
		{
			"bufferView":49,
			"componentType":5126,
			"count":24,
			"type":"VEC3"
		},
		{
			"bufferView":50,
			"componentType":5126,
			"count":24,
			"type":"VEC2"
		},
		{
			"bufferView":51,
			"componentType":5126,
			"count":24,
			"max":[
				2.2077155113220215,
				-0.7157607078552246,
				0.6231276988983154
			],
			"min":[
				1.6287879943847656,
				-1.5124540328979492,
				-0.6516613960266113
			],
			"type":"VEC3"
		},
		{
			"bufferView":52,
			"componentType":5126,
			"count":24,
			"type":"VEC3"
		},
		{
			"bufferView":53,
			"componentType":5126,
			"count":24,
			"type":"VEC2"
		},
		{
			"bufferView":54,
			"componentType":5126,
			"count":48,
			"max":[
				2.1229593753814697,
				3.5842390060424805,
				2.914271354675293
			],
			"min":[
				1.762871265411377,
				2.467545509338379,
				-2.836092710494995
			],
			"type":"VEC3"
		},
		{
			"bufferView":55,
			"componentType":5126,
			"count":48,
			"type":"VEC3"
		},
		{
			"bufferView":56,
			"componentType":5126,
			"count":48,
			"type":"VEC2"
		},
		{
			"bufferView":57,
			"componentType":5123,
			"count":72,
			"type":"SCALAR"
		}
	],
	"bufferViews":[
		{
			"buffer":0,
			"byteLength":288,
			"byteOffset":0,
			"target":34962
		},
		{
			"buffer":0,
			"byteLength":288,
			"byteOffset":288,
			"target":34962
		},
		{
			"buffer":0,
			"byteLength":192,
			"byteOffset":576,
			"target":34962
		},
		{
			"buffer":0,
			"byteLength":72,
			"byteOffset":768,
			"target":34963
		},
		{
			"buffer":0,
			"byteLength":288,
			"byteOffset":840,
			"target":34962
		},
		{
			"buffer":0,
			"byteLength":288,
			"byteOffset":1128,
			"target":34962
		},
		{
			"buffer":0,
			"byteLength":192,
			"byteOffset":1416,
			"target":34962
		},
		{
			"buffer":0,
			"byteLength":288,
			"byteOffset":1608,
			"target":34962
		},
		{
			"buffer":0,
			"byteLength":288,
			"byteOffset":1896,
			"target":34962
		},
		{
			"buffer":0,
			"byteLength":192,
			"byteOffset":2184,
			"target":34962
		},
		{
			"buffer":0,
			"byteLength":288,
			"byteOffset":2376,
			"target":34962
		},
		{
			"buffer":0,
			"byteLength":288,
			"byteOffset":2664,
			"target":34962
		},
		{
			"buffer":0,
			"byteLength":192,
			"byteOffset":2952,
			"target":34962
		},
		{
			"buffer":0,
			"byteLength":288,
			"byteOffset":3144,
			"target":34962
		},
		{
			"buffer":0,
			"byteLength":288,
			"byteOffset":3432,
			"target":34962
		},
		{
			"buffer":0,
			"byteLength":192,
			"byteOffset":3720,
			"target":34962
		},
		{
			"buffer":0,
			"byteLength":288,
			"byteOffset":3912,
			"target":34962
		},
		{
			"buffer":0,
			"byteLength":288,
			"byteOffset":4200,
			"target":34962
		},
		{
			"buffer":0,
			"byteLength":192,
			"byteOffset":4488,
			"target":34962
		},
		{
			"buffer":0,
			"byteLength":72,
			"byteOffset":4680,
			"target":34963
		},
		{
			"buffer":0,
			"byteLength":864,
			"byteOffset":4752,
			"target":34962
		},
		{
			"buffer":0,
			"byteLength":864,
			"byteOffset":5616,
			"target":34962
		},
		{
			"buffer":0,
			"byteLength":576,
			"byteOffset":6480,
			"target":34962
		},
		{
			"buffer":0,
			"byteLength":216,
			"byteOffset":7056,
			"target":34963
		},
		{
			"buffer":0,
			"byteLength":288,
			"byteOffset":7272,
			"target":34962
		},
		{
			"buffer":0,
			"byteLength":288,
			"byteOffset":7560,
			"target":34962
		},
		{
			"buffer":0,
			"byteLength":192,
			"byteOffset":7848,
			"target":34962
		},
		{
			"buffer":0,
			"byteLength":288,
			"byteOffset":8040,
			"target":34962
		},
		{
			"buffer":0,
			"byteLength":288,
			"byteOffset":8328,
			"target":34962
		},
		{
			"buffer":0,
			"byteLength":192,
			"byteOffset":8616,
			"target":34962
		},
		{
			"buffer":0,
			"byteLength":288,
			"byteOffset":8808,
			"target":34962
		},
		{
			"buffer":0,
			"byteLength":288,
			"byteOffset":9096,
			"target":34962
		},
		{
			"buffer":0,
			"byteLength":192,
			"byteOffset":9384,
			"target":34962
		},
		{
			"buffer":0,
			"byteLength":288,
			"byteOffset":9576,
			"target":34962
		},
		{
			"buffer":0,
			"byteLength":288,
			"byteOffset":9864,
			"target":34962
		},
		{
			"buffer":0,
			"byteLength":192,
			"byteOffset":10152,
			"target":34962
		},
		{
			"buffer":0,
			"byteLength":288,
			"byteOffset":10344,
			"target":34962
		},
		{
			"buffer":0,
			"byteLength":288,
			"byteOffset":10632,
			"target":34962
		},
		{
			"buffer":0,
			"byteLength":192,
			"byteOffset":10920,
			"target":34962
		},
		{
			"buffer":0,
			"byteLength":288,
			"byteOffset":11112,
			"target":34962
		},
		{
			"buffer":0,
			"byteLength":288,
			"byteOffset":11400,
			"target":34962
		},
		{
			"buffer":0,
			"byteLength":192,
			"byteOffset":11688,
			"target":34962
		},
		{
			"buffer":0,
			"byteLength":288,
			"byteOffset":11880,
			"target":34962
		},
		{
			"buffer":0,
			"byteLength":288,
			"byteOffset":12168,
			"target":34962
		},
		{
			"buffer":0,
			"byteLength":192,
			"byteOffset":12456,
			"target":34962
		},
		{
			"buffer":0,
			"byteLength":288,
			"byteOffset":12648,
			"target":34962
		},
		{
			"buffer":0,
			"byteLength":288,
			"byteOffset":12936,
			"target":34962
		},
		{
			"buffer":0,
			"byteLength":192,
			"byteOffset":13224,
			"target":34962
		},
		{
			"buffer":0,
			"byteLength":288,
			"byteOffset":13416,
			"target":34962
		},
		{
			"buffer":0,
			"byteLength":288,
			"byteOffset":13704,
			"target":34962
		},
		{
			"buffer":0,
			"byteLength":192,
			"byteOffset":13992,
			"target":34962
		},
		{
			"buffer":0,
			"byteLength":288,
			"byteOffset":14184,
			"target":34962
		},
		{
			"buffer":0,
			"byteLength":288,
			"byteOffset":14472,
			"target":34962
		},
		{
			"buffer":0,
			"byteLength":192,
			"byteOffset":14760,
			"target":34962
		},
		{
			"buffer":0,
			"byteLength":576,
			"byteOffset":14952,
			"target":34962
		},
		{
			"buffer":0,
			"byteLength":576,
			"byteOffset":15528,
			"target":34962
		},
		{
			"buffer":0,
			"byteLength":384,
			"byteOffset":16104,
			"target":34962
		},
		{
			"buffer":0,
			"byteLength":144,
			"byteOffset":16488,
			"target":34963
		}
	],
	"buffers":[
		{
			"byteLength":16632,
			"uri":"chango.bin"
		}
	]
}
