{
	"asset":{
		"generator":"Khronos glTF Blender I/O v4.5.48",
		"version":"2.0"
	},
	"scene":0,
	"scenes":[
		{
			"name":"Scene",
			"nodes":[
				0
			]
		}
	],
	"nodes":[
		{
			"mesh":0,
			"name":"tierra",
			"scale":[
				93.11856842041016,
				18.766496658325195,
				81.68477630615234
			]
		}
	],
	"materials":[
		{
			"doubleSided":true,
			"name":"Material.033",
			"pbrMetallicRoughness":{
				"baseColorFactor":[
					0.076184943318367,
					0.0437350831925869,
					0.030713466927409172,
					1
				],
				"metallicFactor":0,
				"roughnessFactor":0.5
			}
		},
		{
			"doubleSided":true,
			"name":"Material.044",
			"pbrMetallicRoughness":{
				"baseColorFactor":[
					0.04091474041342735,
					0.18447522819042206,
					0.0630100667476654,
					1
				],
				"metallicFactor":0,
				"roughnessFactor":0.5
			}
		},
		{
			"doubleSided":true,
			"name":"Material.043",
			"pbrMetallicRoughness":{
				"baseColorFactor":[
					0.07035962492227554,
					0.07036016881465912,
					0.07036013156175613,
					1
				],
				"metallicFactor":0,
				"roughnessFactor":0.5
			}
		},
		{
			"doubleSided":true,
			"name":"Material.046",
			"pbrMetallicRoughness":{
				"baseColorFactor":[
					0,
					1,
					1,
					1
				],
				"metallicFactor":0,
				"roughnessFactor":0.5
			}
		}
	],
	"meshes":[
		{
			"name":"Cube.025",
			"primitives":[
				{
					"attributes":{
						"POSITION":0,
						"NORMAL":1,
						"TEXCOORD_0":2
					},
					"indices":3,
					"material":0
				},
				{
					"attributes":{
						"POSITION":4,
						"NORMAL":5,
						"TEXCOORD_0":6
					},
					"indices":7,
					"material":1
				},
				{
					"attributes":{
						"POSITION":8,
						"NORMAL":9,
						"TEXCOORD_0":10
					},
					"indices":11
				},
				{
					"attributes":{
						"POSITION":12,
						"NORMAL":13,
						"TEXCOORD_0":14
					},
					"indices":15,
					"material":2
				},
				{
					"attributes":{
						"POSITION":16,
						"NORMAL":17,
						"TEXCOORD_0":18
					},
					"indices":19,
					"material":3
				}
			]
		}
	],
	"accessors":[
		{
			"bufferView":0,
			"componentType":5126,
			"count":40,
			"max":[
				1.6401065587997437,
				1.0238902568817139,
				1.0000364780426025
			],
			"min":[
				-1.6224428415298462,
				-0.9761096835136414,
				-0.9999635219573975
			],
			"type":"VEC3"
		},
		{
			"bufferView":1,
			"componentType":5126,
			"count":40,
			"type":"VEC3"
		},
		{
			"bufferView":2,
			"componentType":5126,
			"count":40,
			"type":"VEC2"
		},
		{
			"bufferView":3,
			"componentType":5123,
			"count":60,
			"type":"SCALAR"
		},
		{
			"bufferView":4,
			"componentType":5126,
			"count":8,
			"max":[
				1.6401065587997437,
				1.0238902568817139,
				1.0000364780426025
			],
			"min":[
				-1.6224428415298462,
				1.0238902568817139,
				-0.9999635219573975
			],
			"type":"VEC3"
		},
		{
			"bufferView":5,
			"componentType":5126,
			"count":8,
			"type":"VEC3"
		},
		{
			"bufferView":6,
			"componentType":5126,
			"count":8,
			"type":"VEC2"
		},
		{
			"bufferView":7,
			"componentType":5123,
			"count":12,
			"type":"SCALAR"
		},
		{
			"bufferView":8,
			"componentType":5126,
			"count":72,
			"max":[
				-0.24775156378746033,
				1.056194543838501,
				0.9643412232398987
			],
			"min":[
				-1.1127341985702515,
				1.056194543838501,
				-1.0028163194656372
			],
			"type":"VEC3"
		},
		{
			"bufferView":9,
			"componentType":5126,
			"count":72,
			"type":"VEC3"
		},
		{
			"bufferView":10,
			"componentType":5126,
			"count":72,
			"type":"VEC2"
		},
		{
			"bufferView":11,
			"componentType":5123,
			"count":108,
			"type":"SCALAR"
		},
		{
			"bufferView":12,
			"componentType":5126,
			"count":48,
			"max":[
				-0.03026789426803589,
				1.0513405799865723,
				0.992931067943573
			],
			"min":[
				-1.345621109008789,
				0.9447675943374634,
				-0.9978227019309998
			],
			"type":"VEC3"
		},
		{
			"bufferView":13,
			"componentType":5126,
			"count":48,
			"type":"VEC3"
		},
		{
			"bufferView":14,
			"componentType":5126,
			"count":48,
			"type":"VEC2"
		},
		{
			"bufferView":15,
			"componentType":5123,
			"count":72,
			"type":"SCALAR"
		},
		{
			"bufferView":16,
			"componentType":5126,
			"count":24,
			"max":[
				0.8022912740707397,
				0.7213307619094849,
				1.0000364780426025
			],
			"min":[
				0.37298768758773804,
				-1.2786693572998047,
				-0.9999635219573975
			],
			"type":"VEC3"
		},
		{
			"bufferView":17,
			"componentType":5126,
			"count":24,
			"type":"VEC3"
		},
		{
			"bufferView":18,
			"componentType":5126,
			"count":24,
			"type":"VEC2"
		},
		{
			"bufferView":19,
			"componentType":5123,
			"count":36,
			"type":"SCALAR"
		}
	],
	"bufferViews":[
		{
			"buffer":0,
			"byteLength":480,
			"byteOffset":0,
			"target":34962
		},
		{
			"buffer":0,
			"byteLength":480,
			"byteOffset":480,
			"target":34962
		},
		{
			"buffer":0,
			"byteLength":320,
			"byteOffset":960,
			"target":34962
		},
		{
			"buffer":0,
			"byteLength":120,
			"byteOffset":1280,
			"target":34963
		},
		{
			"buffer":0,
			"byteLength":96,
			"byteOffset":1400,
			"target":34962
		},
		{
			"buffer":0,
			"byteLength":96,
			"byteOffset":1496,
			"target":34962
		},
		{
			"buffer":0,
			"byteLength":64,
			"byteOffset":1592,
			"target":34962
		},
		{
			"buffer":0,
			"byteLength":24,
			"byteOffset":1656,
			"target":34963
		},
		{
			"buffer":0,
			"byteLength":864,
			"byteOffset":1680,
			"target":34962
		},
		{
			"buffer":0,
			"byteLength":864,
			"byteOffset":2544,
			"target":34962
		},
		{
			"buffer":0,
			"byteLength":576,
			"byteOffset":3408,
			"target":34962
		},
		{
			"buffer":0,
			"byteLength":216,
			"byteOffset":3984,
			"target":34963
		},
		{
			"buffer":0,
			"byteLength":576,
			"byteOffset":4200,
			"target":34962
		},
		{
			"buffer":0,
			"byteLength":576,
			"byteOffset":4776,
			"target":34962
		},
		{
			"buffer":0,
			"byteLength":384,
			"byteOffset":5352,
			"target":34962
		},
		{
			"buffer":0,
			"byteLength":144,
			"byteOffset":5736,
			"target":34963
		},
		{
			"buffer":0,
			"byteLength":288,
			"byteOffset":5880,
			"target":34962
		},
		{
			"buffer":0,
			"byteLength":288,
			"byteOffset":6168,
			"target":34962
		},
		{
			"buffer":0,
			"byteLength":192,
			"byteOffset":6456,
			"target":34962
		},
		{
			"buffer":0,
			"byteLength":72,
			"byteOffset":6648,
			"target":34963
		}
	],
	"buffers":[
		{
			"byteLength":6720,
			"uri":"level.bin"
		}
	]
}
